<svg width="36" height="41" viewBox="0 0 36 41" fill="none" xmlns="http://www.w3.org/2000/svg">
<g clip-path="url(#clip0_3732_995)">
<path fill-rule="evenodd" clip-rule="evenodd" d="M14.3443 22.1219C14.8545 24.112 14.1791 27.1192 13.0476 29.0181C12.8251 29.402 12.5578 29.7583 12.2514 30.0796C12.2461 30.0876 12.2433 30.097 12.2433 30.1067C12.2433 30.1163 12.2461 30.1257 12.2514 30.1338C12.8825 31.4687 14.6031 32.3849 15.8184 33.1533C15.825 33.1574 15.8327 33.1596 15.8406 33.1596C15.8484 33.1596 15.8561 33.1574 15.8628 33.1533L17.9926 32.2051C17.998 32.2026 18.0039 32.2013 18.0098 32.2013C18.0158 32.2013 18.0217 32.2026 18.0271 32.2051L20.576 33.0794C20.5821 33.0836 20.5894 33.0859 20.5969 33.0859C20.6044 33.0859 20.6117 33.0836 20.6179 33.0794C21.7494 32.2962 23.2802 31.4465 23.9457 30.2273C23.9457 26.2547 22.728 22.2426 22.1314 21.6072L18.0394 27.0748C18.0351 27.0804 18.0295 27.0849 18.023 27.0879C18.0166 27.0909 18.0095 27.0924 18.0024 27.0921C17.9947 27.0923 17.9871 27.0906 17.9803 27.0871C17.9734 27.0837 17.9674 27.0786 17.963 27.0724L14.4256 22.0825C14.4193 22.0739 14.4104 22.0675 14.4001 22.0644C14.3899 22.0613 14.379 22.0616 14.3689 22.0653C14.359 22.0705 14.3511 22.079 14.3466 22.0893C14.3421 22.0996 14.3413 22.1111 14.3443 22.1219V22.1219Z" fill="#FF4480"/>
<path fill-rule="evenodd" clip-rule="evenodd" d="M16.447 17.6566C16.94 18.2034 17.7461 19.0334 17.9261 19.2156C17.9581 19.2452 17.9803 19.2599 18.0025 19.2599C18.0271 19.2599 18.0468 19.2452 18.0814 19.2156C18.2564 19.0334 19.0501 18.2034 19.5604 17.6566C19.5655 17.6489 19.5682 17.6399 19.5682 17.6307C19.5682 17.6215 19.5655 17.6125 19.5604 17.6049C19.1944 16.8213 18.879 16.0151 18.6163 15.1912C18.4906 14.8267 18.4462 14.2061 17.9975 14.2061C17.5489 14.2061 17.5045 14.839 17.3813 15.1912C17.1174 16.0147 16.8021 16.8208 16.4372 17.6049C16.4324 17.6126 16.4298 17.6216 16.4298 17.6307C16.4298 17.6399 16.4324 17.6488 16.4372 17.6566H16.447Z" fill="#F26D00"/>
<path fill-rule="evenodd" clip-rule="evenodd" d="M23.507 14.9498C23.3531 14.9561 23.2008 14.9164 23.0697 14.8355C22.9386 14.7547 22.8347 14.6365 22.7715 14.4962C22.7082 14.3558 22.6884 14.1998 22.7147 14.0482C22.7409 13.8965 22.812 13.7562 22.9188 13.6452C23.0255 13.5343 23.1631 13.4578 23.3137 13.4257C23.4644 13.3935 23.6212 13.4071 23.764 13.4648C23.9069 13.5225 24.0291 13.6215 24.1151 13.7492C24.2011 13.8769 24.2469 14.0274 24.2465 14.1813C24.2498 14.381 24.1739 14.5739 24.0353 14.7179C23.8968 14.8619 23.7068 14.9452 23.507 14.9498V14.9498ZM22.8932 17.1959C23.3341 17.2067 23.7683 17.0859 24.1402 16.849C24.5121 16.6121 24.8049 16.2698 24.9811 15.8658C25.1574 15.4618 25.2091 15.0145 25.1297 14.581C25.0504 14.1476 24.8435 13.7475 24.5355 13.4321C24.2275 13.1167 23.8323 12.9001 23.4006 12.8101C22.9688 12.7201 22.52 12.7607 22.1114 12.9268C21.7028 13.0928 21.3531 13.3768 21.1068 13.7424C20.8606 14.108 20.729 14.5386 20.7288 14.9793C20.7253 15.2669 20.7784 15.5523 20.8852 15.8193C20.9921 16.0863 21.1505 16.3297 21.3515 16.5355C21.5525 16.7414 21.7921 16.9056 22.0566 17.0189C22.3211 17.1322 22.6054 17.1924 22.8932 17.1959V17.1959ZM12.9564 14.1148C12.9618 14.2597 13.0096 14.3998 13.094 14.5177C13.1785 14.6356 13.2957 14.726 13.4313 14.7778C13.5668 14.8296 13.7145 14.8405 13.8562 14.809C13.9978 14.7775 14.127 14.705 14.2277 14.6007C14.3285 14.4964 14.3962 14.3648 14.4226 14.2222C14.449 14.0797 14.4329 13.9325 14.3762 13.7991C14.3195 13.6656 14.2248 13.5518 14.1039 13.4718C13.9829 13.3917 13.8411 13.349 13.696 13.3489C13.4968 13.354 13.3076 13.4372 13.1692 13.5805C13.0309 13.7238 12.9544 13.9157 12.9564 14.1148V14.1148ZM15.2416 14.9793C15.2309 15.4045 15.095 15.8172 14.8507 16.1656C14.6065 16.514 14.2649 16.7827 13.8686 16.9381C13.4723 17.0935 13.0389 17.1287 12.6227 17.0392C12.2065 16.9497 11.826 16.7396 11.5287 16.4352C11.2314 16.1307 11.0306 15.7454 10.9514 15.3275C10.8722 14.9095 10.9181 14.4776 11.0834 14.0856C11.2486 13.6936 11.526 13.359 11.8806 13.1237C12.2353 12.8884 12.6515 12.7628 13.0772 12.7627C13.365 12.7662 13.6493 12.8264 13.9138 12.9397C14.1784 13.053 14.418 13.2173 14.6189 13.4231C14.8199 13.6289 14.9783 13.8723 15.0852 14.1393C15.192 14.4063 15.2452 14.6918 15.2416 14.9793V14.9793Z" fill="#1A1A1A"/>
<path fill-rule="evenodd" clip-rule="evenodd" d="M13.8365 38.9509C13.4766 38.7957 13.6171 38.2465 13.7527 37.8918C13.4685 37.9362 13.1791 37.9362 12.8948 37.8918C12.7762 38.2187 12.5592 38.5009 12.2736 38.6997C11.7535 39.01 10.622 38.6874 9.43141 38.5839C8.78309 38.5273 7.3213 38.6529 6.80363 39.0937C6.67341 39.2006 6.59095 39.3547 6.57438 39.5223C6.56238 39.6299 6.58482 39.7385 6.63847 39.8326C6.70977 39.9374 6.80685 40.0222 6.92039 40.0787C7.03393 40.1352 7.1601 40.1615 7.28679 40.1553C7.33609 39.9434 7.76008 39.4706 8.97044 39.5617C7.8291 39.5789 7.38046 39.904 7.3139 40.2218C7.29975 40.2908 7.30244 40.3621 7.32175 40.4299C7.34106 40.4976 7.37642 40.5597 7.42483 40.6109C7.48231 40.675 7.55205 40.727 7.62994 40.7638C7.70784 40.8006 7.79232 40.8215 7.87841 40.8252C9.23913 40.8892 11.5095 39.643 12.7247 39.8055C14.9655 40.0518 15.9417 40.0321 16.3657 39.9237C16.4582 39.9101 16.5426 39.8633 16.6034 39.7923C16.6641 39.7212 16.697 39.6305 16.696 39.5371C16.6973 39.4215 16.6638 39.3083 16.5999 39.212C16.5605 39.1457 16.5065 39.0893 16.4421 39.0469C15.7272 38.6283 15.2342 39.5395 13.8414 38.9484L13.8365 38.9509Z" fill="#F26D00"/>
<path fill-rule="evenodd" clip-rule="evenodd" d="M16.6935 39.239C16.7417 39.3309 16.7663 39.4333 16.765 39.537C16.9802 39.5298 17.1951 39.5581 17.401 39.6208C17.1956 39.4439 16.9542 39.3137 16.6935 39.239V39.239ZM7.34842 40.6281C7.26637 40.5251 7.2267 40.3948 7.2375 40.2636C6.92708 40.4365 6.671 40.6923 6.49797 41.0025C6.7447 40.8132 7.03274 40.6849 7.33856 40.6281H7.34842ZM6.00989 40.1552C6.18075 40.0235 6.37235 39.9211 6.57686 39.8523C6.53239 39.7653 6.50876 39.6692 6.50783 39.5715C6.30538 39.7305 6.13761 39.9291 6.01482 40.1552H6.00989Z" fill="#1A1A1A"/>
<path fill-rule="evenodd" clip-rule="evenodd" d="M22.161 38.9509C22.5209 38.7957 22.3804 38.2465 22.2448 37.8918C22.5291 37.9362 22.8185 37.9362 23.1027 37.8918C23.2216 38.2193 23.4395 38.5016 23.7264 38.6997C24.244 39.01 25.3755 38.6874 26.5661 38.5839C27.2144 38.5273 28.6762 38.6529 29.1964 39.0937C29.3257 39.2013 29.408 39.355 29.4256 39.5223C29.4355 39.6301 29.4123 39.7383 29.3591 39.8326C29.2885 39.9371 29.1923 40.0219 29.0797 40.0788C28.9671 40.1357 28.8418 40.1629 28.7157 40.1577C28.6664 39.9459 28.2424 39.473 27.032 39.5642C28.1734 39.5814 28.622 39.9065 28.691 40.2242C28.7042 40.2934 28.7009 40.3648 28.6811 40.4324C28.6614 40.5 28.626 40.5621 28.5776 40.6134C28.5202 40.6775 28.4504 40.7295 28.3725 40.7663C28.2946 40.8031 28.2101 40.8239 28.1241 40.8276C26.7633 40.8917 24.493 39.6454 23.2777 39.808C21.0369 40.0543 20.0731 40.0346 19.6368 39.9262C19.5445 39.912 19.4603 39.8652 19.3997 39.7942C19.3391 39.7232 19.306 39.6328 19.3065 39.5395C19.3067 39.4245 19.3391 39.3119 19.4001 39.2144C19.4419 39.1484 19.4974 39.0922 19.5628 39.0494C20.2752 38.6307 20.7683 39.542 22.161 38.9509V38.9509Z" fill="#F26D00"/>
<path fill-rule="evenodd" clip-rule="evenodd" d="M19.309 39.239C19.2631 39.3317 19.2386 39.4336 19.2375 39.537C19.0231 39.5298 18.809 39.5581 18.6039 39.6208C18.8085 39.444 19.049 39.3137 19.309 39.239ZM28.6541 40.6281C28.7361 40.5251 28.7758 40.3948 28.765 40.2636C29.076 40.4357 29.3322 40.6918 29.5045 41.0025C29.2578 40.8132 28.9698 40.6849 28.6639 40.6281H28.6541ZM29.9951 40.1577C29.8227 40.0269 29.6305 39.9246 29.4256 39.8547C29.4713 39.7682 29.495 39.6718 29.4947 39.574C29.697 39.7331 29.8647 39.9317 29.9877 40.1577H29.9951Z" fill="#1A1A1A"/>
<path fill-rule="evenodd" clip-rule="evenodd" d="M14.3295 10.4379C16.9918 11.6693 19.0132 11.6693 21.6878 10.4379C22.2893 10.1571 23.152 10.0364 23.9877 9.98469C24.0986 9.9576 24.1381 9.92312 24.0814 9.85908C20.6574 5.86178 24.8382 2.6403 24.3723 2.5073C23.1939 2.16496 20.5563 3.31267 19.8316 4.55398C19.8236 4.56792 19.8112 4.57888 19.7964 4.58517C19.7816 4.59147 19.7651 4.59276 19.7495 4.58886C19.7339 4.58496 19.72 4.57608 19.7099 4.56356C19.6998 4.55104 19.694 4.53557 19.6935 4.5195C19.6615 3.45799 22.0526 1.03941 23.9433 0.384279C23.9591 0.380105 23.9731 0.370837 23.983 0.357918C23.993 0.345 23.9984 0.329156 23.9984 0.312854C23.9984 0.296553 23.993 0.280709 23.983 0.26779C23.9731 0.254872 23.9591 0.245604 23.9433 0.24143C17.5711 -0.842249 13.9622 1.62805 11.9951 9.87878C11.9828 9.93297 12.0124 9.96499 12.0814 9.98715C12.851 10.0058 13.6117 10.1574 14.3295 10.4354V10.4379Z" fill="#FF4480"/>
<path fill-rule="evenodd" clip-rule="evenodd" d="M15.3426 18.5236C16.0674 17.6715 16.5998 16.1149 16.9647 15.0485C17.2112 14.3638 17.258 13.7456 18 13.753C18.7395 13.753 18.8036 14.3638 19.0353 15.0485C19.4026 16.1149 19.9326 17.6715 20.6598 18.5236C21.0173 18.9541 21.4801 19.285 22.0033 19.4842C23.6968 20.1344 26.3911 19.7305 27.4733 17.935C27.9047 17.2183 28.0477 16.2504 28.1857 15.3268C28.3188 14.4475 28.4322 13.6027 28.8069 13.1102C28.867 13.0207 28.943 12.9431 29.0312 12.8811C29.1717 12.7826 29.226 12.7432 29.2235 12.2777V11.2925C29.2244 11.2601 29.2202 11.2277 29.2112 11.1965C29.1298 10.9009 28.6516 10.7039 27.9589 10.566C27.1561 10.4379 26.3437 10.3794 25.5308 10.3911C24.1627 10.3911 22.728 10.5537 21.8776 10.8443C19.0131 11.9624 16.9992 11.9624 14.1323 10.8467C13.2818 10.5561 11.8472 10.401 10.4766 10.3936C9.66449 10.3819 8.85292 10.4404 8.05094 10.5684C7.35825 10.6965 6.87756 10.9034 6.79621 11.1989C6.79246 11.2309 6.79246 11.2631 6.79621 11.295V12.2802C6.79621 12.7456 6.85044 12.7727 6.98849 12.8836C7.07817 12.9446 7.15518 13.0224 7.21528 13.1126C7.57764 13.6052 7.70829 14.4574 7.83401 15.3292C7.97206 16.2528 8.11749 17.2207 8.54888 17.9375C9.62859 19.7378 12.3229 20.1368 14.0189 19.4866C14.5417 19.2868 15.0043 18.956 15.3624 18.5261L15.3426 18.5236ZM14.3985 18.3611C13.097 19.4472 10.4766 19.265 9.34264 17.9251C8.17666 16.5434 7.50862 12.1767 9.62366 11.5216C11.327 10.9871 14.7757 11.2063 15.9762 12.8786C16.9351 14.2086 15.4708 17.4794 14.3985 18.3685V18.3611ZM21.6039 18.3611C22.9129 19.4472 25.5234 19.265 26.6573 17.9251C27.8258 16.5459 28.4914 12.1767 26.3788 11.5216C24.6828 10.9797 21.2317 11.1989 20.0263 12.8713C19.0649 14.2012 20.5193 17.4695 21.6039 18.3611V18.3611Z" fill="#1A1A1A"/>
<path fill-rule="evenodd" clip-rule="evenodd" d="M20.5735 19.2797C20.5915 19.267 20.6132 19.261 20.6351 19.2624C20.6623 19.2624 20.6869 19.2624 20.6869 19.2846C20.5982 20.2476 19.2522 21.0086 18.0863 21.0086C16.9203 21.0086 15.5719 20.2402 15.4856 19.2846C15.4856 19.2846 15.5102 19.2649 15.5374 19.2624C15.5592 19.2613 15.5809 19.2674 15.599 19.2797C17.3245 20.6663 18.848 20.6663 20.5735 19.2797V19.2797Z" fill="#F26D00"/>
<path fill-rule="evenodd" clip-rule="evenodd" d="M19.0625 25.4368C18.853 25.1105 18.7245 24.739 18.6878 24.3531C18.6878 22.9542 19.7823 23.7866 19.7305 23.7325L18.0345 22.0084C18.0233 22.005 18.0113 22.005 18 22.0084V22.0084C17.9879 22.0092 17.9765 22.0145 17.968 22.0232V22.0232L16.3262 23.8113C16.2769 23.8655 17.3542 22.9985 17.3887 24.3999C17.3706 24.7862 17.2507 25.1609 17.0411 25.4861C17.0368 25.4935 17.0345 25.502 17.0345 25.5107C17.0345 25.5193 17.0368 25.5278 17.0411 25.5353L17.968 26.8554C17.972 26.8615 17.9775 26.8665 17.984 26.8699C17.9904 26.8734 17.9976 26.8751 18.0049 26.8751C18.0122 26.8749 18.0193 26.8731 18.0258 26.8696C18.0322 26.8662 18.0377 26.8614 18.0419 26.8554L19.06 25.4934C19.0649 25.4862 19.0675 25.4776 19.0675 25.4688C19.0675 25.46 19.0649 25.4515 19.06 25.4442L19.0625 25.4368Z" fill="#1A1A1A"/>
<path fill-rule="evenodd" clip-rule="evenodd" d="M17.995 27.7766C18.0471 27.7761 18.0981 27.7911 18.1417 27.8195C18.1853 27.848 18.2195 27.8887 18.24 27.9365C18.2604 27.9843 18.2663 28.0371 18.2568 28.0883C18.2473 28.1394 18.2229 28.1866 18.1866 28.2239C18.1503 28.2612 18.1037 28.2869 18.0528 28.2978C18.0019 28.3087 17.9489 28.3043 17.9005 28.2852C17.8521 28.2661 17.8104 28.2331 17.7808 28.1904C17.7511 28.1476 17.7347 28.0971 17.7337 28.0451C17.7331 28.0103 17.7394 27.9757 17.7522 27.9433C17.765 27.9109 17.7841 27.8814 17.8084 27.8564C17.8327 27.8315 17.8617 27.8115 17.8937 27.7979C17.9258 27.7842 17.9602 27.7769 17.995 27.7766V27.7766Z" fill="#FCFCFC"/>
<path fill-rule="evenodd" clip-rule="evenodd" d="M17.9951 29.54C18.0609 29.5464 18.1221 29.577 18.1666 29.626C18.2111 29.6749 18.2357 29.7387 18.2357 29.8048C18.2357 29.8709 18.2111 29.9347 18.1666 29.9836C18.1221 30.0326 18.0609 30.0632 17.9951 30.0696C17.9581 30.0731 17.9208 30.0689 17.8856 30.0573C17.8504 30.0456 17.818 30.0267 17.7905 30.0017C17.763 29.9768 17.7411 29.9464 17.726 29.9125C17.711 29.8786 17.7032 29.8419 17.7032 29.8048C17.7032 29.7677 17.711 29.7311 17.726 29.6971C17.7411 29.6632 17.763 29.6328 17.7905 29.6079C17.818 29.583 17.8504 29.564 17.8856 29.5524C17.9208 29.5407 17.9581 29.5365 17.9951 29.54V29.54Z" fill="#FCFCFC"/>
<path fill-rule="evenodd" clip-rule="evenodd" d="M17.9951 31.3135C18.0609 31.3198 18.1221 31.3505 18.1666 31.3994C18.2111 31.4484 18.2357 31.5121 18.2357 31.5782C18.2357 31.6444 18.2111 31.7081 18.1666 31.7571C18.1221 31.806 18.0609 31.8367 17.9951 31.843C17.9581 31.8466 17.9208 31.8424 17.8856 31.8307C17.8504 31.819 17.818 31.8001 17.7905 31.7752C17.763 31.7502 17.7411 31.7198 17.726 31.6859C17.711 31.652 17.7032 31.6153 17.7032 31.5782C17.7032 31.5412 17.711 31.5045 17.726 31.4706C17.7411 31.4367 17.763 31.4063 17.7905 31.3813C17.818 31.3564 17.8504 31.3375 17.8856 31.3258C17.9208 31.3141 17.9581 31.3099 17.9951 31.3135V31.3135Z" fill="#FCFCFC"/>
<path fill-rule="evenodd" clip-rule="evenodd" d="M12.9318 28.9539C13.9548 27.2298 14.687 24.3901 14.2654 22.368C13.8809 20.8164 13.2227 20.3977 11.8891 20.2056C9.52508 19.9593 5.59328 19.1884 0.998377 16.3068C0.991723 16.3027 0.984036 16.3005 0.976192 16.3005C0.968347 16.3005 0.960661 16.3027 0.954006 16.3068H0.929355C0.922045 16.3102 0.915711 16.3153 0.910963 16.3218C0.906214 16.3282 0.903211 16.3358 0.90224 16.3438C0.709964 18.3609 1.10684 20.8583 3.12081 23.267C3.39936 23.5946 0.0271367 22.7178 0.00495102 22.7399C-0.00117627 22.7459 -0.00556299 22.7534 -0.00773528 22.7616C-0.00990757 22.7699 -0.00978264 22.7786 -0.00737418 22.7867C1.25475 26.7274 3.53494 27.5229 4.99427 28.3135C5.41333 28.5426 2.32705 28.5598 2.5637 28.7667C4.35828 30.3947 6.14053 31.1458 8.07068 31.2296C11.0066 31.3429 11.968 30.0745 11.8373 30.5129C11.2506 32.5078 11.0017 36.9164 12.7494 37.7785C13.0974 37.8726 13.4634 37.8786 13.8143 37.7957C15.3575 36.8918 15.917 34.2737 16.2498 34.419C16.7913 34.6904 17.3848 34.8424 17.9902 34.8648C18.6029 34.8463 19.2042 34.6951 19.7527 34.4215C20.083 34.2762 20.6401 36.8696 22.166 37.7858C22.1694 37.7876 22.1732 37.7885 22.1771 37.7885C22.1809 37.7885 22.1847 37.7876 22.1882 37.7858L23.2531 37.7711C23.2603 37.7732 23.268 37.7732 23.2753 37.7711C25.0008 36.813 24.7543 32.562 24.1652 30.5178C24.0444 30.104 25.0206 31.3453 27.9318 31.2345C29.862 31.1582 31.6442 30.4094 33.4388 28.7716C33.6656 28.5672 31.0107 28.6214 30.9737 28.3701C30.9723 28.3607 30.9739 28.3511 30.9783 28.3427C30.9827 28.3342 30.9898 28.3275 30.9984 28.3234C32.4577 27.5303 34.7453 26.7299 36.0074 22.7892C36.0764 22.5725 34.092 23.3212 32.9063 23.3581C32.4133 23.3729 35.6352 21.2942 35.1027 16.297C35.1019 16.2887 35.099 16.2807 35.0943 16.2738C35.0895 16.2669 35.0831 16.2613 35.0756 16.2576H35.0559C35.0484 16.2533 35.0399 16.251 35.0312 16.251C35.0226 16.251 35.0141 16.2533 35.0066 16.2576C32.1249 18.4225 25.4298 20.4864 21.848 20.4445C21.84 20.442 21.8314 20.442 21.8234 20.4445C21.7667 20.479 21.7667 20.5529 21.811 20.6686C22.5498 21.8948 23.0804 23.2347 23.3813 24.6339C23.8248 26.465 24.0564 28.3409 24.0715 30.2247V30.2469C24.0729 30.2542 24.0729 30.2617 24.0715 30.2691V30.2888C23.3862 31.5448 21.8529 32.3872 20.7017 33.1876C20.6278 33.2369 20.6229 33.2369 20.5415 33.2073L18.0271 32.3502C18.0159 32.3466 18.0038 32.3466 17.9926 32.3502L15.9096 33.2787C15.8234 33.3157 15.8184 33.3157 15.7395 33.2664C14.507 32.4807 12.7814 31.5645 12.1233 30.1902C12.0764 30.0868 12.0789 30.0696 12.1578 29.9858C12.4573 29.6734 12.718 29.3261 12.9343 28.9514L12.9318 28.9539Z" fill="#333333"/>
</g>
<defs>
<clipPath id="clip0_3732_995">
<rect width="36" height="41" fill="white"/>
</clipPath>
</defs>
</svg>
