<svg width="72" height="60" viewBox="0 0 72 60" fill="none"
    xmlns="http://www.w3.org/2000/svg">
    <g clip-path="url(#clip0_3381_181)">
        <path d="M46.8756 36.3739L44.511 35.4281L44.3031 34.6039C45.3652 33.9668 46.1282 32.88 46.3266 31.6086C47.3656 31.3014 48.1259 30.3383 48.1259 29.201C48.1259 28.5 47.8366 27.8654 47.3716 27.4095V26.4445C47.3716 24.4568 46.2618 22.7236 44.6293 21.8317V20.7684C44.6293 19.3843 43.5032 18.2583 42.1192 18.2583C40.7351 18.2583 39.6091 19.3843 39.6091 20.7684V21.8317C37.9767 22.7235 36.8668 24.4568 36.8668 26.4444V27.4095C36.4017 27.8653 36.1125 28.4999 36.1125 29.201C36.1125 30.3383 36.8728 31.3014 37.9118 31.6086C38.1102 32.8799 38.8732 33.9668 39.9353 34.6039L39.7273 35.428L37.3627 36.3738C37.1492 36.4593 36.9486 36.5646 36.7618 36.6866V36.0159C36.7618 34.626 35.9279 33.3943 34.6375 32.8781L32.391 31.9795V31.1965C33.2818 30.5443 33.9112 29.5549 34.0887 28.4175C35.1272 28.1103 35.8879 27.147 35.8879 26.01C35.8879 25.3087 35.5989 24.6739 35.1333 24.2184V23.2536C35.1333 20.3575 32.777 18.0013 29.881 18.0013C26.9849 18.0013 24.6287 20.3575 24.6287 23.2536V24.2184C24.163 24.6744 23.874 25.3092 23.874 26.011C23.874 27.148 24.6342 28.1108 25.6737 28.4175C25.8512 29.5544 26.4802 30.5434 27.3709 31.1956V31.9795L25.1244 32.8781C23.8339 33.3944 23 34.6261 23 36.0159V41.9986H49V39.5117C49 38.1218 48.1661 36.8901 46.8756 36.3739ZM29.8809 19.5248C30.3167 19.5248 30.7351 19.6006 31.1241 19.7387C31.1064 20.3999 30.5634 20.9325 29.898 20.9325C29.2287 20.9325 28.6832 20.3937 28.6715 19.7272C29.051 19.5966 29.4576 19.5248 29.8809 19.5248ZM27.1458 27.7584L27.1453 26.9967H26.3836C25.8397 26.9967 25.3974 26.5544 25.3974 26.01C25.3974 25.5464 25.7193 25.1559 26.1515 25.0513H26.152V23.2536C26.152 22.2036 26.5889 21.2543 27.2896 20.576C27.6547 21.6671 28.6857 22.4559 29.898 22.4559C31.1012 22.4559 32.1257 21.679 32.498 20.6007C33.1837 21.2772 33.6097 22.2165 33.6097 23.2536V25.0512L33.6138 25.0523C34.0439 25.1579 34.3643 25.5474 34.3643 26.01C34.3643 26.5534 33.922 26.9962 33.3777 26.9967L32.6159 26.9977V27.7594C32.6159 29.2671 31.3896 30.4935 29.8809 30.4935C28.3732 30.4935 27.1458 29.2666 27.1458 27.7584ZM30.8675 31.9014V32.4953C30.8675 33.0393 30.4249 33.4819 29.8809 33.4819C29.3368 33.4819 28.8942 33.0393 28.8942 32.4953V31.9008C29.2115 31.9764 29.5423 32.0169 29.8824 32.0169C30.2214 32.017 30.5511 31.9767 30.8675 31.9014ZM35.2383 39.5117V40.4752H24.5234V36.0159C24.5234 35.2526 24.9814 34.5761 25.6902 34.2926L27.5952 33.5306C27.9904 34.3994 28.8659 35.0053 29.8809 35.0053C30.8959 35.0053 31.7714 34.3994 32.1666 33.5306L34.0716 34.2926C34.7803 34.5761 35.2383 35.2526 35.2383 36.0159V39.5117ZM41.1325 20.7684C41.1325 20.2243 41.5751 19.7817 42.1191 19.7817C42.6632 19.7817 43.1058 20.2243 43.1058 20.7684V21.2854C42.7861 21.2244 42.4563 21.1921 42.1191 21.1921C41.782 21.1921 41.4522 21.2244 41.1325 21.2854V20.7684ZM38.3902 26.4445C38.3902 24.3883 40.063 22.7155 42.1191 22.7155C44.1753 22.7155 45.8481 24.3883 45.8481 26.4445V26.7021C45.7716 26.6951 45.6942 26.691 45.6158 26.691H45.0636C44.6713 26.6893 44.3523 26.3691 44.3523 25.9767V25.4388H42.8289C42.8289 26.1292 42.2672 26.691 41.5767 26.691H38.6225C38.5441 26.691 38.4668 26.6951 38.3902 26.7021V26.4445H38.3902ZM39.3842 30.9493V30.1876H38.6225C38.0785 30.1876 37.6359 29.745 37.6359 29.201C37.6359 28.657 38.0785 28.2144 38.6225 28.2144H41.5767C42.2891 28.2144 42.9396 27.9447 43.4315 27.502C43.8388 27.9383 44.4181 28.2124 45.0597 28.2144H45.6158C46.1598 28.2144 46.6024 28.657 46.6024 29.201C46.6024 29.745 46.1598 30.1876 45.6158 30.1876H44.8541V30.9493C44.8541 32.4574 43.6272 33.6843 42.1191 33.6843C40.6111 33.6843 39.3842 32.4573 39.3842 30.9493ZM43.0676 35.9343C42.8547 36.342 42.455 36.4942 42.1243 36.4957C41.7891 36.4969 41.3861 36.3461 41.171 35.9335L41.3708 35.1413C41.6139 35.1845 41.8639 35.2077 42.1192 35.2077C42.3745 35.2077 42.6245 35.1846 42.8676 35.1413L43.0676 35.9343ZM47.4766 40.4752H36.7617V39.5117C36.7617 38.7483 37.2197 38.0719 37.9284 37.7884L40.0145 36.954C40.4916 37.6185 41.2563 38.0192 42.1183 38.0192C42.1226 38.0192 42.1271 38.0192 42.1314 38.0192C42.9901 38.0151 43.7499 37.6146 44.2242 36.9542L46.3098 37.7884C47.0186 38.0719 47.4766 38.7483 47.4766 39.5117V40.4752Z" fill="red"/>
    </g>
    <defs>
        <clipPath id="clip0_3381_181">
            <rect width="26" height="26" fill="white" transform="translate(23 17)"/>
        </clipPath>
    </defs>
</svg>
