<svg xmlns="http://www.w3.org/2000/svg" fill="none" viewBox="21 15 30 30">
    <rect x="21.5" y="15.5" width="29" height="29" rx="9.5" fill="#FFF5E8" stroke="#B35F00"/>
    <path d="M45.0524 34.995L43.7699 33.15C43.5948 32.8992 43.5006 32.6009 43.4999 32.295V27C43.4999 25.0109 42.7097 23.1032 41.3032 21.6967C39.8967 20.2902 37.989 19.5 35.9999 19.5C34.0108 19.5 32.1032 20.2902 30.6967 21.6967C29.2902 23.1032 28.5 25.0109 28.5 27V32.295C28.4993 32.6009 28.4051 32.8992 28.23 33.15L26.9475 34.995C26.7533 35.2102 26.6256 35.477 26.5798 35.7632C26.5341 36.0494 26.5722 36.3427 26.6896 36.6077C26.8071 36.8727 26.9987 37.098 27.2415 37.2563C27.4842 37.4147 27.7677 37.4993 28.0575 37.5H32.325C32.4971 38.3477 32.957 39.1099 33.6268 39.6573C34.2965 40.2047 35.1349 40.5038 35.9999 40.5038C36.8649 40.5038 37.7034 40.2047 38.3731 39.6573C39.0429 39.1099 39.5028 38.3477 39.6749 37.5H43.9424C44.2322 37.4993 44.5156 37.4147 44.7584 37.2563C45.0011 37.098 45.1928 36.8727 45.3102 36.6077C45.4276 36.3427 45.4658 36.0494 45.42 35.7632C45.3742 35.477 45.2466 35.2102 45.0524 34.995ZM35.9999 39C35.5357 38.9987 35.0833 38.8538 34.7046 38.5853C34.326 38.3168 34.0397 37.9377 33.8849 37.5H38.1149C37.9602 37.9377 37.6739 38.3168 37.2952 38.5853C36.9166 38.8538 36.4641 38.9987 35.9999 39ZM28.0575 36C28.0914 35.9685 28.1216 35.9333 28.1475 35.895L29.46 34.005C29.8101 33.5034 29.9985 32.9067 30 32.295V27C30 25.4087 30.6321 23.8826 31.7573 22.7574C32.8825 21.6321 34.4086 21 35.9999 21C37.5912 21 39.1173 21.6321 40.2425 22.7574C41.3678 23.8826 41.9999 25.4087 41.9999 27V32.295C42.0013 32.9067 42.1898 33.5034 42.5399 34.005L43.8524 35.895C43.8783 35.9333 43.9085 35.9685 43.9424 36H28.0575Z" fill="#502B00"/>
    <circle cx="41" cy="23" r="5" fill="#FFF5F8"/>
    <circle cx="41" cy="23" r="3" fill="#5BB139"/>
</svg>
