<svg width="20" height="22" viewBox="0 0 20 22" fill="none" xmlns="http://www.w3.org/2000/svg">
<path d="M19.0524 15.995L17.7699 14.15C17.5948 13.8992 17.5006 13.6009 17.4999 13.295V8C17.4999 6.01088 16.7097 4.10322 15.3032 2.6967C13.8967 1.29018 11.989 0.5 9.99993 0.5C8.01082 0.5 6.10318 1.29018 4.69667 2.6967C3.29015 4.10322 2.49998 6.01088 2.49998 8V13.295C2.49926 13.6009 2.40505 13.8992 2.22999 14.15L0.947495 15.995C0.753307 16.2102 0.625611 16.477 0.57985 16.7632C0.534089 17.0494 0.572224 17.3427 0.689641 17.6077C0.807059 17.8727 0.998731 18.098 1.24148 18.2563C1.48423 18.4147 1.76766 18.4993 2.05749 18.5H6.32496C6.49709 19.3477 6.957 20.1099 7.62675 20.6573C8.29651 21.2047 9.13492 21.5038 9.99993 21.5038C10.8649 21.5038 11.7034 21.2047 12.3731 20.6573C13.0429 20.1099 13.5028 19.3477 13.6749 18.5H17.9424C18.2322 18.4993 18.5156 18.4147 18.7584 18.2563C19.0011 18.098 19.1928 17.8727 19.3102 17.6077C19.4276 17.3427 19.4658 17.0494 19.42 16.7632C19.3742 16.477 19.2466 16.2102 19.0524 15.995V15.995ZM9.99993 20C9.53573 19.9987 9.08329 19.8538 8.70464 19.5853C8.326 19.3168 8.03968 18.9377 7.88495 18.5H12.1149C11.9602 18.9377 11.6739 19.3168 11.2952 19.5853C10.9166 19.8538 10.4641 19.9987 9.99993 20V20ZM2.05749 17C2.09139 16.9685 2.12158 16.9333 2.14749 16.895L3.45998 15.005C3.81011 14.5034 3.99852 13.9067 3.99997 13.295V8C3.99997 6.4087 4.63211 4.88258 5.75732 3.75736C6.88253 2.63214 8.40864 2 9.99993 2C11.5912 2 13.1173 2.63214 14.2425 3.75736C15.3677 4.88258 15.9999 6.4087 15.9999 8V13.295C16.0013 13.9067 16.1898 14.5034 16.5399 15.005L17.8524 16.895C17.8783 16.9333 17.9085 16.9685 17.9424 17H2.05749Z" fill="#FFFF"/>
</svg>
