<svg width="26" height="26" viewBox="0 0 26 26" fill="none" xmlns="http://www.w3.org/2000/svg">
<path d="M12.5216 4.79004C13.0163 4.38973 13.7617 4.74271 13.7617 5.38281C13.7617 5.80282 13.42 6.14453 13 6.14453C12.5793 6.14453 12.2383 6.48558 12.2383 6.90625V7.66797C12.2383 8.08864 12.5793 8.42969 13 8.42969C13.4207 8.42969 13.7617 8.08864 13.7617 7.66797V7.53746C14.6484 7.22312 15.2851 6.37594 15.2851 5.38281C15.2851 4.12278 14.26 3.09766 13 3.09766C12.4784 3.09766 11.9681 3.27813 11.5632 3.60582C11.2362 3.8705 11.1856 4.35012 11.4503 4.67716C11.715 5.00419 12.1946 5.05472 12.5216 4.79004V4.79004Z" fill="#333333"/>
<path d="M13 10.7148C13.4207 10.7148 13.7617 10.3738 13.7617 9.95312C13.7617 9.53244 13.4207 9.19141 13 9.19141C12.5793 9.19141 12.2383 9.53244 12.2383 9.95312C12.2383 10.3738 12.5793 10.7148 13 10.7148Z" fill="#333333"/>
<path d="M7.92188 13.7617H18.0781C18.4988 13.7617 18.8398 13.4207 18.8398 13C18.8398 12.5793 18.4988 12.2383 18.0781 12.2383H7.92188C7.5012 12.2383 7.16016 12.5793 7.16016 13C7.16016 13.4207 7.5012 13.7617 7.92188 13.7617Z" fill="#333333"/>
<path d="M25.7513 10.9658C25.7127 10.9231 25.9903 11.2022 22.1406 7.35241V1.52344C22.1406 0.683414 21.4572 0 20.6172 0H5.38281C4.54279 0 3.85938 0.683414 3.85938 1.52344V7.3122C0.00908989 11.2057 0.254566 10.9519 0.201957 11.0226C0.0965859 11.1643 0.0507812 11.3283 0.0507812 11.4766V23.7148C0.0507812 24.9749 1.0759 26 2.33594 26H23.6641C24.9241 26 25.9492 24.9749 25.9492 23.7148V11.4766C25.9492 11.2951 25.8842 11.1124 25.7513 10.9658ZM24.0471 11.4134L22.1406 12.9386V9.50691L24.0471 11.4134ZM20.6172 1.52344V14.1574L17.3031 16.8086H8.6969L5.38281 14.1574V1.52344H20.6172ZM3.85938 12.9386L1.94919 11.4104L3.85938 9.47873V12.9386ZM23.6641 24.4766H2.33594C1.91593 24.4766 1.57422 24.1349 1.57422 23.7148V13.0614L7.95382 18.1651C8.08889 18.2732 8.25668 18.332 8.42969 18.332H17.5703C17.7433 18.332 17.9111 18.2732 18.0462 18.1651L24.4258 13.0614V23.7148C24.4258 24.1349 24.0841 24.4766 23.6641 24.4766Z" fill="#333333"/>
</svg>
