<svg width="36" height="36" viewBox="0 0 36 36" fill="none" xmlns="http://www.w3.org/2000/svg">
<g clip-path="url(#clip0_3558_1701)">
<path d="M18 0C8.0748 0 0 8.0748 0 18C0 27.9252 8.0748 36 18 36C27.9252 36 36 27.9252 36 18C36 8.0748 27.9252 0 18 0ZM18 32.1699C10.1868 32.1699 3.82972 25.8136 3.82972 18C3.82972 10.1864 10.1868 3.83009 18 3.83009C25.8132 3.83009 32.1703 10.1864 32.1703 18C32.1703 25.8136 25.8132 32.1699 18 32.1699Z" fill="#333333"/>
<path d="M27.381 17.4442H19.2917V7.71793C19.2917 6.89945 18.6281 6.23584 17.8096 6.23584C16.9911 6.23584 16.3275 6.89945 16.3275 7.71793V18.9262C16.3275 19.7447 16.9911 20.4083 17.8096 20.4083H27.381C28.1994 20.4083 28.863 19.7447 28.863 18.9262C28.863 18.1078 28.1994 17.4442 27.381 17.4442Z" fill="#333333"/>
</g>
<defs>
<clipPath id="clip0_3558_1701">
<rect width="36" height="36" fill="white"/>
</clipPath>
</defs>
</svg>
