<svg width="72" height="60" viewBox="0 0 72 60" fill="none" xmlns="http://www.w3.org/2000/svg">
<path d="M41 15.5H31C25.7533 15.5 21.5 19.7533 21.5 25V35C21.5 40.2467 25.7533 44.5 31 44.5H41C46.2467 44.5 50.5 40.2467 50.5 35V25C50.5 19.7533 46.2467 15.5 41 15.5Z" fill="#E5E5E5" stroke="#E1E1E1"/>
<path d="M40.7369 30.6424L32.643 38.7343C32.2878 39.0886 31.7124 39.0886 31.3564 38.7343C31.0012 38.38 31.0012 37.8045 31.3564 37.4503L38.8083 30.0004L31.3573 22.5506C31.0021 22.1964 31.0021 21.6209 31.3573 21.2657C31.7124 20.9114 32.2887 20.9114 32.6439 21.2657L40.7378 29.3575C41.0875 29.7081 41.0875 30.2926 40.7369 30.6424Z" fill="#333333"/>
</svg>
