<svg width="32" height="32" viewBox="0 0 32 32" fill="none" xmlns="http://www.w3.org/2000/svg">
<circle cx="16" cy="16" r="16" fill="#333333"/>
<path d="M22.5551 11.0707L17.6426 15.9833L22.5551 20.8956L20.898 22.5531L15.9855 17.6406L11.0731 22.5531L9.41565 20.8956L14.3282 15.9833L9.41565 11.0707L11.0731 9.41364L15.9855 14.3262L20.898 9.41364L22.5551 11.0707ZM30.9844 15.9844C30.9844 19.9909 29.4241 23.7579 26.5909 26.5909C23.7579 29.4241 19.9909 30.9844 15.9844 30.9844C11.9778 30.9844 8.21082 29.4241 5.37781 26.5909C2.54462 23.7579 0.984375 19.9909 0.984375 15.9844C0.984375 11.9778 2.54462 8.21082 5.37781 5.37781C8.21082 2.54462 11.9778 0.984375 15.9844 0.984375C19.9909 0.984375 23.7579 2.54462 26.5909 5.37781C29.4241 8.21082 30.9844 11.9778 30.9844 15.9844ZM28.6406 15.9844C28.6406 9.00586 22.9629 3.32812 15.9844 3.32812C9.00586 3.32812 3.32812 9.00586 3.32812 15.9844C3.32812 22.9629 9.00586 28.6406 15.9844 28.6406C22.9629 28.6406 28.6406 22.9629 28.6406 15.9844Z" fill="white"/>
</svg>
