<svg width="36" height="36" viewBox="0 0 36 36" fill="none" xmlns="http://www.w3.org/2000/svg">
<g clip-path="url(#clip0_3558_2083)">
<path d="M21.2658 4.38423C21.2658 5.78608 20.1274 6.92246 18.7229 6.92246H9.86129C8.4569 6.92246 7.31836 5.78608 7.31836 4.38423V2.53823C7.31836 1.13639 8.4569 0 9.86129 0H18.7229C20.1273 0 21.2658 1.13639 21.2658 2.53823V4.38423ZM18.9541 2.53823C18.9541 2.41077 18.8505 2.30746 18.7229 2.30746H9.86129C9.73359 2.30746 9.63013 2.41077 9.63013 2.53823V4.38423C9.63013 4.51169 9.73359 4.615 9.86129 4.615H18.7229C18.8506 4.615 18.9541 4.51169 18.9541 4.38423V2.53823Z" fill="#333333"/>
<path d="M14.7158 18.7676H22.961V21.075H14.7158V18.7676Z" fill="#333333"/>
<path d="M14.7158 11.8452H22.961V14.1527H14.7158V11.8452Z" fill="#333333"/>
<path d="M14.7158 25.7671H18.5688V28.0746H14.7158V25.7671Z" fill="#333333"/>
<path d="M27.5251 36.0002C23.4883 36.0002 20.2041 32.7223 20.2041 28.6932C20.2041 24.6642 23.4883 21.3862 27.5251 21.3862C31.5619 21.3862 34.8461 24.6641 34.8461 28.6932C34.8461 32.7224 31.5619 36.0002 27.5251 36.0002ZM27.5251 23.581C24.7009 23.581 22.4032 25.8743 22.4032 28.6932C22.4032 31.512 24.7009 33.8053 27.5251 33.8053C30.3493 33.8053 32.647 31.512 32.647 28.6932C32.647 25.8743 30.3493 23.581 27.5251 23.581Z" fill="#333333"/>
<path d="M27.4304 16.0756H25.1187V5.0467C25.1187 4.82246 24.9001 4.61516 24.693 4.61516H23.2693V2.30762H24.693C26.1821 2.30762 27.4304 3.54216 27.4304 5.0467V16.0756Z" fill="#333333"/>
<path d="M25.1189 17.7676H27.4307V19.7674H25.1189V17.7676Z" fill="#333333"/>
<path d="M19.0312 34.074H3.85343C2.36481 34.074 1.15381 32.8535 1.15381 31.3641V5.04669C1.15381 3.54223 2.36481 2.30762 3.85343 2.30762H5.54612V4.61508H3.85343C3.64681 4.61508 3.46558 4.82239 3.46558 5.04662V31.3641C3.46558 31.5811 3.63958 31.7665 3.85343 31.7665H19.0313V34.074H19.0312Z" fill="#333333"/>
<path d="M26.0991 31.0299L24.0076 28.9046L25.6553 27.2842L26.9198 28.5659L29.457 25.9722L31.1108 27.5841L27.7498 31.0269C27.5336 31.2479 26.7876 31.6896 26.0991 31.0299Z" fill="#333333"/>
<path d="M7.32785 29.1672L5.08301 26.7268L6.7867 25.1685L8.17993 26.6854L11.4915 23.0835L13.1948 24.6438L9.03131 29.1673C8.81239 29.4054 8.00893 29.8048 7.32785 29.1672Z" fill="#333333"/>
<path d="M7.32785 22.2447L5.08301 19.8044L6.7867 18.2461L8.17993 19.7631L11.4915 16.1611L13.1948 17.7214L9.03131 22.2449C8.81239 22.483 8.00893 22.8824 7.32785 22.2447Z" fill="#333333"/>
<path d="M7.32785 15.2453L5.08301 12.8049L6.7867 11.2466L8.17993 12.7635L11.4915 9.16162L13.1948 10.7219L9.03131 15.2454C8.81239 15.4836 8.00893 15.8829 7.32785 15.2453Z" fill="#333333"/>
</g>
<defs>
<clipPath id="clip0_3558_2083">
<rect width="36" height="36" fill="white"/>
</clipPath>
</defs>
</svg>
