<svg width="72" height="60" viewBox="0 0 72 60" fill="none"
    xmlns="http://www.w3.org/2000/svg">
    <path d="M48.2853 21.9331C47.8033 21.3827 47.1163 21.0794 46.351 21.0794H40.5729V17.7617C40.5729 17.341 40.2319 17 39.8112 17H35.7318C35.3111 17 34.9701 17.341 34.9701 17.7617V21.0794H27.8447L27.6584 19.6829C27.4576 18.1785 26.4103 17 25.2738 17H23.9141C23.4933 17 23.1523 17.341 23.1523 17.7617C23.1523 18.1824 23.4933 18.5234 23.9141 18.5234H25.2738C25.5182 18.5234 26.0358 19.0402 26.1482 19.8842L28.3287 36.2378C28.4247 36.9586 28.795 37.6335 29.3715 38.1381C29.7989 38.5124 30.3042 38.7614 30.8334 38.8655C30.6178 39.262 30.4954 39.7163 30.4954 40.1985C30.4954 41.7434 31.752 43 33.2967 43C34.8414 43 36.0982 41.7434 36.0982 40.1985C36.0982 39.7383 35.9859 39.3041 35.7883 38.9206H39.7798C39.5823 39.3041 39.47 39.7383 39.47 40.1985C39.47 41.7434 40.7266 43 42.2715 43C43.8161 43 45.0728 41.7434 45.0728 40.1985C45.0728 39.7383 44.9605 39.3041 44.7631 38.9206H46.7589C47.1794 38.9206 47.5206 38.5795 47.5206 38.1589C47.5206 37.7382 47.1794 37.3972 46.7589 37.3972H31.393C30.6487 37.3972 29.937 36.7739 29.8386 36.0362L29.6793 34.8411H44.7191C45.4463 34.8411 46.1642 34.5632 46.7406 34.0587C47.3169 33.5541 47.6872 32.8791 47.7836 32.1582L48.876 23.9638C48.9772 23.205 48.7675 22.4838 48.2853 21.9331ZM34.5748 40.1985C34.5748 40.9033 34.0015 41.4766 33.2967 41.4766C32.5921 41.4766 32.0188 40.9033 32.0188 40.1985C32.0188 39.4939 32.5921 38.9206 33.2967 38.9206C34.0015 38.9206 34.5748 39.4939 34.5748 40.1985ZM43.5495 40.1985C43.5495 40.9033 42.9763 41.4766 42.2715 41.4766C41.5669 41.4766 40.9936 40.9033 40.9936 40.1985C40.9936 39.4939 41.5669 38.9206 42.2715 38.9206C42.9763 38.9206 43.5495 39.4939 43.5495 40.1985ZM36.4935 18.5234H39.0495V21.8324C39.0495 21.8353 39.0491 21.8381 39.0491 21.8411C39.0491 21.8441 39.0495 21.847 39.0495 21.85V25.9206C39.0495 26.3412 39.3904 26.6824 39.8112 26.6824H40.0798L37.817 28.927L35.5543 26.6824H35.7318C36.1525 26.6824 36.4935 26.3412 36.4935 25.9206V18.5234ZM47.3659 23.7622L46.2735 31.9569C46.1751 32.6944 45.4634 33.3176 44.7191 33.3176H29.4762L28.0478 22.6028H34.9701V25.1589H33.7047C33.3961 25.1589 33.118 25.3452 33.0005 25.6304C32.8829 25.9159 32.9492 26.244 33.1684 26.4614L37.2806 30.5407C37.429 30.6881 37.623 30.7617 37.817 30.7617C38.011 30.7617 38.205 30.6881 38.3534 30.5407L42.4657 26.4614C42.6849 26.244 42.7511 25.9159 42.6335 25.6304C42.5161 25.3452 42.238 25.1589 41.9293 25.1589H40.5729V22.6028H46.351C46.6708 22.6028 46.9507 22.7214 47.1391 22.9366C47.3276 23.1521 47.4081 23.4453 47.3659 23.7622Z" fill="red"/>
</svg>
