<svg width="26" height="26" viewBox="0 0 26 26" fill="none" xmlns="http://www.w3.org/2000/svg">
<g clip-path="url(#clip0_3735_3149)">
<path d="M20.9276 8.6707C20.5906 8.6707 20.3172 8.94396 20.3172 9.2811V13.095C20.3172 17.1296 17.0348 20.412 13 20.412C8.96533 20.412 5.68294 17.1295 5.68294 13.0949V9.28105C5.68294 8.94391 5.40958 8.67065 5.07255 8.67065C4.73541 8.67065 4.46216 8.94391 4.46216 9.28105V13.0949C4.46216 17.5975 7.9657 21.2967 12.3897 21.6107V24.7792H9.23239C8.89535 24.7792 8.622 25.0525 8.622 25.3896C8.622 25.7268 8.8953 26 9.23239 26H16.7676C17.1046 26 17.378 25.7268 17.378 25.3896C17.378 25.0525 17.1047 24.7792 16.7676 24.7792H13.6104V21.6107C18.0344 21.2967 21.5379 17.5974 21.5379 13.0949V9.28105C21.538 8.94396 21.2646 8.6707 20.9276 8.6707Z" fill="red"/>
<path d="M13.4068 0H12.5933C9.80289 0 7.53278 2.27012 7.53278 5.06049V13.5017C7.53278 16.2921 9.80289 18.5622 12.5933 18.5622H13.4068C16.1971 18.5622 18.4673 16.2921 18.4673 13.5017V5.06049C18.4673 2.27012 16.1971 0 13.4068 0ZM17.2465 6.64487H15.0339C14.6968 6.64487 14.4235 6.91812 14.4235 7.25526C14.4235 7.59239 14.6968 7.86565 15.0339 7.86565H17.2465V9.56468H15.0339C14.6968 9.56468 14.4235 9.83793 14.4235 10.1751C14.4235 10.5122 14.6968 10.7855 15.0339 10.7855H17.2465V12.4846H15.0339C14.6968 12.4846 14.4235 12.7579 14.4235 13.095C14.4235 13.4321 14.6968 13.7054 15.0339 13.7054H17.241C17.1349 15.7283 15.4557 17.3415 13.4068 17.3415H12.5933C10.5444 17.3415 8.86527 15.7283 8.75909 13.7054H10.9662C11.3034 13.7054 11.5766 13.4321 11.5766 13.095C11.5766 12.7579 11.3034 12.4846 10.9662 12.4846H8.7536V10.7855H10.9662C11.3034 10.7855 11.5766 10.5122 11.5766 10.1751C11.5766 9.83793 11.3034 9.56468 10.9662 9.56468H8.7536V7.86565H10.9662C11.3034 7.86565 11.5766 7.59239 11.5766 7.25526C11.5766 6.91812 11.3034 6.64487 10.9662 6.64487H8.7536V5.06049C8.7536 3.53889 9.64329 2.22112 10.9298 1.60011V3.32581C10.9298 3.66295 11.2031 3.9362 11.5402 3.9362C11.8772 3.9362 12.1506 3.66295 12.1506 3.32581V1.24708C12.2959 1.23028 13.7042 1.23028 13.8496 1.24708V3.32581C13.8496 3.66295 14.1228 3.9362 14.46 3.9362C14.797 3.9362 15.0704 3.66295 15.0704 3.32581V1.60011C16.3568 2.22112 17.2465 3.53879 17.2465 5.06044V6.64487V6.64487Z" fill="red"/>
</g>
<defs>
<clipPath id="clip0_3735_3149">
<rect width="26" height="26" fill="white"/>
</clipPath>
</defs>
</svg>
