<svg width="72" height="60" viewBox="0 0 72 60" fill="none"
    xmlns="http://www.w3.org/2000/svg">
    <path d="M30.9219 30C30.9219 30.5609 31.3766 31.0156 31.9375 31.0156H34.9844V34.0625C34.9844 34.6234 35.4391 35.0781 36 35.0781C36.5609 35.0781 37.0156 34.6234 37.0156 34.0625V31.0156H40.0625C40.6234 31.0156 41.0781 30.5609 41.0781 30C41.0781 29.4391 40.6234 28.9844 40.0625 28.9844H37.0156V25.9375C37.0156 25.3766 36.5609 24.9219 36 24.9219C35.4391 24.9219 34.9844 25.3766 34.9844 25.9375V28.9844H31.9375C31.3766 28.9844 30.9219 29.4391 30.9219 30Z" fill="red"/>
    <path d="M31.1456 20.1383L32.4593 19.5941C32.9775 19.3794 33.2236 18.7853 33.0089 18.2671C32.7942 17.7489 32.2002 17.5026 31.6819 17.7175L30.3682 18.2617C29.8501 18.4764 29.6039 19.0705 29.8186 19.5887C30.0326 20.1052 30.6257 20.3535 31.1456 20.1383Z" fill="red"/>
    <path d="M36 17C35.4391 17 34.9844 17.4547 34.9844 18.0156C34.9844 18.5766 35.4391 19.0312 36 19.0312C42.0622 19.0312 46.9688 23.9371 46.9688 30C46.9688 36.0622 42.0629 40.9688 36 40.9688C29.9378 40.9688 25.0312 36.0629 25.0312 30C25.0312 29.4391 24.5766 28.9844 24.0156 28.9844C23.4547 28.9844 23 29.4391 23 30C23 37.1847 28.8143 43 36 43C43.1847 43 49 37.1857 49 30C49 22.8153 43.1857 17 36 17Z" fill="red"/>
    <path d="M27.7412 22.7467L28.7466 21.7413C29.1433 21.3446 29.1433 20.7015 28.7466 20.3049C28.35 19.9083 27.7069 19.9083 27.3103 20.3049L26.3049 21.3103C25.9082 21.707 25.9082 22.3501 26.3049 22.7467C26.7014 23.1432 27.3446 23.1433 27.7412 22.7467Z" fill="red"/>
    <path d="M24.2671 27.0089C24.7864 27.224 25.3799 26.9763 25.5941 26.4593L26.1383 25.1456C26.353 24.6274 26.1068 24.0333 25.5887 23.8186C25.0704 23.604 24.4764 23.85 24.2617 24.3682L23.7175 25.6819C23.5028 26.2001 23.7489 26.7942 24.2671 27.0089Z" fill="red"/>
</svg>
