<svg width="72" height="60" viewBox="0 0 72 60" fill="none"
    xmlns="http://www.w3.org/2000/svg">
    <path d="M35.5216 21.79C36.0163 21.3897 36.7617 21.7427 36.7617 22.3828C36.7617 22.8028 36.42 23.1445 36 23.1445C35.5793 23.1445 35.2383 23.4856 35.2383 23.9062V24.668C35.2383 25.0886 35.5793 25.4297 36 25.4297C36.4207 25.4297 36.7617 25.0886 36.7617 24.668V24.5375C37.6484 24.2231 38.2851 23.3759 38.2851 22.3828C38.2851 21.1228 37.26 20.0977 36 20.0977C35.4784 20.0977 34.9681 20.2781 34.5632 20.6058C34.2362 20.8705 34.1856 21.3501 34.4503 21.6772C34.715 22.0042 35.1946 22.0547 35.5216 21.79Z" fill="red"/>
    <path d="M36 27.7148C36.4207 27.7148 36.7617 27.3738 36.7617 26.9531C36.7617 26.5324 36.4207 26.1914 36 26.1914C35.5793 26.1914 35.2383 26.5324 35.2383 26.9531C35.2383 27.3738 35.5793 27.7148 36 27.7148Z" fill="red"/>
    <path d="M30.9219 30.7617H41.0781C41.4988 30.7617 41.8398 30.4207 41.8398 30C41.8398 29.5793 41.4988 29.2383 41.0781 29.2383H30.9219C30.5012 29.2383 30.1602 29.5793 30.1602 30C30.1602 30.4207 30.5012 30.7617 30.9219 30.7617Z" fill="red"/>
    <path d="M48.7513 27.9658C48.7127 27.9231 48.9903 28.2022 45.1406 24.3524V18.5234C45.1406 17.6834 44.4572 17 43.6172 17H28.3828C27.5428 17 26.8594 17.6834 26.8594 18.5234V24.3122C23.0091 28.2057 23.2546 27.9519 23.202 28.0226C23.0966 28.1643 23.0508 28.3283 23.0508 28.4766V40.7148C23.0508 41.9749 24.0759 43 25.3359 43H46.6641C47.9241 43 48.9492 41.9749 48.9492 40.7148V28.4766C48.9492 28.2951 48.8842 28.1124 48.7513 27.9658ZM47.0471 28.4134L45.1406 29.9386V26.5069L47.0471 28.4134ZM43.6172 18.5234V31.1574L40.3031 33.8086H31.6969L28.3828 31.1574V18.5234H43.6172ZM26.8594 29.9386L24.9492 28.4104L26.8594 26.4787V29.9386ZM46.6641 41.4766H25.3359C24.9159 41.4766 24.5742 41.1349 24.5742 40.7148V30.0614L30.9538 35.1651C31.0889 35.2732 31.2567 35.332 31.4297 35.332H40.5703C40.7433 35.332 40.9111 35.2732 41.0462 35.1651L47.4258 30.0614V40.7148C47.4258 41.1349 47.0841 41.4766 46.6641 41.4766Z" fill="red"/>
</svg>
