<svg width="72" height="60" viewBox="0 0 72 60" fill="none"
    xmlns="http://www.w3.org/2000/svg">
    <g clip-path="url(#clip0_808_470)">
        <path d="M48.35 28.258C48.3492 28.2574 48.3486 28.2566 48.348 28.256L37.742 17.6504C37.29 17.1982 36.6889 16.9492 36.0496 16.9492C35.4103 16.9492 34.8092 17.1982 34.357 17.6504L23.7565 28.2506C23.753 28.2542 23.7492 28.258 23.7458 28.2616C22.8175 29.1953 22.8191 30.7102 23.7504 31.6415C24.1759 32.0672 24.7377 32.3136 25.3385 32.3395C25.3631 32.3419 25.3877 32.3431 25.4125 32.3431H25.835V40.148C25.835 41.6926 27.0918 42.9493 28.6365 42.9493H32.7859C33.2066 42.9493 33.5476 42.6081 33.5476 42.1876V36.0684C33.5476 35.3636 34.1211 34.7903 34.8259 34.7903H37.2733C37.9781 34.7903 38.5514 35.3636 38.5514 36.0684V42.1876C38.5514 42.6081 38.8924 42.9493 39.3131 42.9493H43.4625C45.0073 42.9493 46.264 41.6926 46.264 40.148V32.3431H46.656C47.2951 32.3431 47.8961 32.0942 48.3486 31.6417C49.2809 30.709 49.2813 29.1913 48.35 28.258V28.258ZM47.2713 30.5646C47.1068 30.729 46.8882 30.8197 46.656 30.8197H45.5023C45.0815 30.8197 44.7405 31.1607 44.7405 31.5814V40.148C44.7405 40.8526 44.1673 41.4258 43.4625 41.4258H40.0748V36.0684C40.0748 34.5237 38.8182 33.2669 37.2733 33.2669H34.8259C33.281 33.2669 32.0242 34.5237 32.0242 36.0684V41.4258H28.6365C27.9319 41.4258 27.3584 40.8526 27.3584 40.148V31.5814C27.3584 31.1607 27.0175 30.8197 26.5967 30.8197H25.4629C25.451 30.8189 25.4393 30.8183 25.4272 30.8181C25.2002 30.8141 24.9874 30.7241 24.8279 30.5644C24.4887 30.2252 24.4887 29.6731 24.8279 29.3337C24.8281 29.3337 24.8281 29.3335 24.8283 29.3333L24.8289 29.3327L35.4345 18.7276C35.5987 18.5631 35.8171 18.4727 36.0496 18.4727C36.2819 18.4727 36.5003 18.5631 36.6647 18.7276L47.2679 29.3305C47.2695 29.3321 47.2713 29.3337 47.2729 29.3353C47.6103 29.6751 47.6097 30.226 47.2713 30.5646V30.5646Z" fill="red"/>
    </g>
    <defs>
        <clipPath id="clip0_808_470">
            <rect width="26" height="26" fill="white" transform="translate(23 17)"/>
        </clipPath>
    </defs>
</svg>
