<svg width="72" height="60" viewBox="0 0 72 60" fill="none"
    xmlns="http://www.w3.org/2000/svg">
    <g clip-path="url(#clip0_3381_174)">
        <path d="M43.9276 25.6708C43.5906 25.6708 43.3172 25.944 43.3172 26.2812V30.095C43.3172 34.1297 40.0348 37.4121 36 37.4121C31.9653 37.4121 28.6829 34.1296 28.6829 30.095V26.2811C28.6829 25.944 28.4096 25.6707 28.0725 25.6707C27.7354 25.6707 27.4622 25.944 27.4622 26.2811V30.095C27.4622 34.5976 30.9657 38.2968 35.3897 38.6108V41.7793H32.2324C31.8954 41.7793 31.622 42.0525 31.622 42.3897C31.622 42.7268 31.8953 43.0001 32.2324 43.0001H39.7676C40.1046 43.0001 40.378 42.7268 40.378 42.3897C40.378 42.0525 40.1047 41.7793 39.7676 41.7793H36.6104V38.6108C41.0344 38.2968 44.5379 34.5975 44.5379 30.095V26.2811C44.538 25.944 44.2646 25.6708 43.9276 25.6708Z" fill="red"/>
        <path d="M36.4068 17H35.5933C32.8029 17 30.5328 19.2701 30.5328 22.0605V30.5017C30.5328 33.2921 32.8029 35.5622 35.5933 35.5622H36.4068C39.1971 35.5622 41.4673 33.2921 41.4673 30.5017V22.0605C41.4673 19.2701 39.1971 17 36.4068 17ZM40.2465 23.6449H38.0339C37.6968 23.6449 37.4235 23.9181 37.4235 24.2553C37.4235 24.5924 37.6968 24.8656 38.0339 24.8656H40.2465V26.5647H38.0339C37.6968 26.5647 37.4235 26.8379 37.4235 27.1751C37.4235 27.5122 37.6968 27.7855 38.0339 27.7855H40.2465V29.4846H38.0339C37.6968 29.4846 37.4235 29.7579 37.4235 30.095C37.4235 30.4321 37.6968 30.7054 38.0339 30.7054H40.241C40.1349 32.7283 38.4557 34.3415 36.4068 34.3415H35.5933C33.5444 34.3415 31.8653 32.7283 31.7591 30.7054H33.9662C34.3034 30.7054 34.5766 30.4321 34.5766 30.095C34.5766 29.7579 34.3034 29.4846 33.9662 29.4846H31.7536V27.7855H33.9662C34.3034 27.7855 34.5766 27.5122 34.5766 27.1751C34.5766 26.8379 34.3034 26.5647 33.9662 26.5647H31.7536V24.8656H33.9662C34.3034 24.8656 34.5766 24.5924 34.5766 24.2553C34.5766 23.9181 34.3034 23.6449 33.9662 23.6449H31.7536V22.0605C31.7536 20.5389 32.6433 19.2211 33.9298 18.6001V20.3258C33.9298 20.6629 34.2031 20.9362 34.5402 20.9362C34.8772 20.9362 35.1506 20.6629 35.1506 20.3258V18.2471C35.2959 18.2303 36.7042 18.2303 36.8496 18.2471V20.3258C36.8496 20.6629 37.1228 20.9362 37.46 20.9362C37.797 20.9362 38.0704 20.6629 38.0704 20.3258V18.6001C39.3568 19.2211 40.2465 20.5388 40.2465 22.0604V23.6449Z" fill="red"/>
    </g>
    <defs>
        <clipPath id="clip0_3381_174">
            <rect width="26" height="26" fill="white" transform="translate(23 17)"/>
        </clipPath>
    </defs>
</svg>
